<svg width="22" height="20" viewBox="0 0 22 20" fill="none" xmlns="http://www.w3.org/2000/svg">
<path d="M14.4444 11.6667C14.9259 11.6667 15.3241 11.5093 15.6389 11.1944C15.9537 10.8796 16.1111 10.4815 16.1111 10C16.1111 9.51852 15.9537 9.12037 15.6389 8.80556C15.3241 8.49074 14.9259 8.33333 14.4444 8.33333C13.963 8.33333 13.5648 8.49074 13.25 8.80556C12.9352 9.12037 12.7778 9.51852 12.7778 10C12.7778 10.4815 12.9352 10.8796 13.25 11.1944C13.5648 11.5093 13.963 11.6667 14.4444 11.6667ZM2.22222 20C1.61111 20 1.08778 19.7822 0.652224 19.3467C0.216668 18.9111 -0.000738854 18.3881 1.88644e-06 17.7778V2.22222C1.88644e-06 1.61111 0.21778 1.08778 0.653335 0.652224C1.08889 0.216668 1.61185 -0.000738854 2.22222 1.88644e-06H17.7778C18.3889 1.88644e-06 18.9122 0.21778 19.3478 0.653335C19.7833 1.08889 20.0007 1.61185 20 2.22222V5H17.7778V2.22222H2.22222V17.7778H17.7778V15H20V17.7778C20 18.3889 19.7822 18.9122 19.3467 19.3478C18.9111 19.7833 18.3881 20.0007 17.7778 20H2.22222ZM11.1111 15.5556C10.5 15.5556 9.97667 15.3378 9.54111 14.9022C9.10556 14.4667 8.88815 13.9437 8.88889 13.3333V6.66667C8.88889 6.05556 9.10667 5.53222 9.54222 5.09667C9.97778 4.66111 10.5007 4.44371 11.1111 4.44445H18.8889C19.5 4.44445 20.0233 4.66222 20.4589 5.09778C20.8944 5.53333 21.1118 6.0563 21.1111 6.66667V13.3333C21.1111 13.9444 20.8933 14.4678 20.4578 14.9033C20.0222 15.3389 19.4993 15.5563 18.8889 15.5556H11.1111Z" fill="#FFBB0D"/>
</svg>
