<svg width="13" height="15" viewBox="0 0 13 15" fill="none" xmlns="http://www.w3.org/2000/svg">
<path d="M4.28571 5.35718H5.35713V11.7857H4.28571V5.35718ZM7.49999 5.35718H8.57142V11.7857H7.49999V5.35718Z" fill="#D7D7D7"/>
<path d="M0 2.14286V3.21429H1.07143V13.9286C1.07143 14.2127 1.18431 14.4853 1.38524 14.6862C1.58617 14.8871 1.8587 15 2.14286 15H10.7143C10.9984 15 11.271 14.8871 11.4719 14.6862C11.6728 14.4853 11.7857 14.2127 11.7857 13.9286V3.21429H12.8571V2.14286H0ZM2.14286 13.9286V3.21429H10.7143V13.9286H2.14286ZM4.28571 0H8.57143V1.07143H4.28571V0Z" fill="#D7D7D7"/>
</svg>
