<svg width="13" height="15" viewBox="0 0 13 15" fill="none" xmlns="http://www.w3.org/2000/svg">
<path d="M1.5 15C1.0875 15 0.734251 14.853 0.440251 14.559C0.146251 14.265 -0.000498726 13.912 1.27334e-06 13.5V3.75C1.27334e-06 3.5375 0.0720013 3.35925 0.216001 3.21525C0.360001 3.07125 0.538001 2.9995 0.750001 3C0.962501 3 1.14075 3.072 1.28475 3.216C1.42875 3.36 1.5005 3.538 1.5 3.75V13.5H9C9.2125 13.5 9.39075 13.572 9.53475 13.716C9.67875 13.86 9.7505 14.038 9.75 14.25C9.75 14.4625 9.678 14.6407 9.534 14.7847C9.39 14.9287 9.212 15.0005 9 15H1.5ZM4.5 12C4.0875 12 3.73425 11.853 3.44025 11.559C3.14625 11.265 2.9995 10.912 3 10.5V1.5C3 1.0875 3.147 0.734251 3.441 0.440251C3.735 0.146251 4.088 -0.000498726 4.5 1.27334e-06H11.25C11.6625 1.27334e-06 12.0157 0.147001 12.3097 0.441001C12.6037 0.735001 12.7505 1.088 12.75 1.5V10.5C12.75 10.9125 12.603 11.2657 12.309 11.5597C12.015 11.8537 11.662 12.0005 11.25 12H4.5ZM4.5 10.5H11.25V1.5H4.5V10.5Z" fill="#D7D7D7"/>
</svg>
