<svg width="9" height="15" viewBox="0 0 9 15" fill="none" xmlns="http://www.w3.org/2000/svg">
<path d="M3 12.75H5.25V15H3V12.75ZM4.5 0C8.5125 0.165 10.26 4.215 7.875 7.2525C7.2525 8.0025 6.2475 8.4975 5.7525 9.1275C5.25 9.75 5.25 10.5 5.25 11.25H3C3 9.9975 3 8.94 3.5025 8.19C3.9975 7.44 5.0025 6.9975 5.625 6.5025C7.44 4.8225 6.99 2.445 4.5 2.25C3.90326 2.25 3.33097 2.48705 2.90901 2.90901C2.48705 3.33097 2.25 3.90326 2.25 4.5H0C0 3.30653 0.474106 2.16193 1.31802 1.31802C2.16193 0.474106 3.30653 0 4.5 0Z" fill="#D7D7D7"/>
</svg>
