<svg width="19" height="19" viewBox="0 0 19 19" fill="none" xmlns="http://www.w3.org/2000/svg">
<path d="M9.5 17C10.9834 17 12.4334 16.5601 13.6668 15.736C14.9001 14.9119 15.8614 13.7406 16.4291 12.3701C16.9968 10.9997 17.1453 9.49168 16.8559 8.03682C16.5665 6.58197 15.8522 5.2456 14.8033 4.1967C13.7544 3.14781 12.418 2.4335 10.9632 2.14411C9.50832 1.85472 8.00032 2.00325 6.62987 2.57091C5.25943 3.13856 4.08809 4.09986 3.26398 5.33323C2.43987 6.56659 2 8.01664 2 9.5C2 10.74 2.3 11.9092 2.83333 12.9392L2 17L6.06083 16.1667C7.09083 16.7 8.26083 17 9.5 17Z" stroke="#696B76" stroke-width="2.5" stroke-linecap="round" stroke-linejoin="round"/>
<path d="M12 7.83331L8.66667 11.1666L7 9.49998" stroke="#696B76" stroke-width="2.5" stroke-linecap="round" stroke-linejoin="round"/>
</svg>
