<svg width="48" height="24" viewBox="0 0 48 24" fill="none" xmlns="http://www.w3.org/2000/svg">
<rect width="48" height="24" rx="2" fill="#FBFAF8"/>
<g clip-path="url(#clip0_204_375)">
<path d="M18.3587 12.1039C18.3593 11.7637 18.3288 11.424 18.2677 11.0888H13.284V13.0104H16.1378C16.0794 13.3171 15.9558 13.6094 15.7745 13.8698C15.5932 14.1302 15.3579 14.3532 15.0828 14.5254V15.776H16.7864C17.7838 14.9076 18.3587 13.6228 18.3587 12.1039Z" fill="#4285F4"/>
<path d="M13.284 16.9811C14.7088 16.9811 15.9113 16.5385 16.7863 15.776L15.0828 14.5278C14.6083 14.8329 13.9985 15.0052 13.284 15.0052C11.9061 15.0052 10.7358 14.128 10.3175 12.9457H8.56299V14.2317C9.00263 15.0582 9.67696 15.753 10.5106 16.2385C11.3443 16.7241 12.3045 16.9812 13.284 16.9811V16.9811Z" fill="#34A853"/>
<path d="M10.3176 12.9457C10.0964 12.3262 10.0964 11.6552 10.3176 11.0357V9.74943H8.563C8.19255 10.445 7.9996 11.2127 7.9996 11.9913C7.9996 12.7699 8.19255 13.5376 8.563 14.2332L10.3176 12.9457Z" fill="#FBBC04"/>
<path d="M23.1347 12.8634V16.3796H21.9525V7.693H25.0856C25.4597 7.68541 25.8317 7.74795 26.1801 7.87701C26.5284 8.00606 26.8462 8.19907 27.1151 8.44487C27.3824 8.67998 27.5955 8.96455 27.7413 9.28085C27.8871 9.59715 27.9623 9.93841 27.9623 10.2834C27.9623 10.6283 27.8871 10.9696 27.7413 11.2859C27.5955 11.6022 27.3824 11.8867 27.1151 12.1219C26.5668 12.6156 25.8903 12.862 25.0856 12.8612H23.134L23.1347 12.8634ZM23.1347 8.76361V11.7964H25.116C25.4304 11.8019 25.7395 11.7198 26.0048 11.5604C26.27 11.401 26.4797 11.1714 26.6077 10.9001C26.7356 10.6289 26.7762 10.3281 26.7242 10.0353C26.6723 9.74243 26.5302 9.47052 26.3156 9.25347C26.305 9.2431 26.2956 9.23303 26.2833 9.22297C26.1342 9.07236 25.9529 8.95341 25.7515 8.87401C25.55 8.7946 25.3329 8.75656 25.1147 8.76239L23.1347 8.76361ZM30.6868 10.2433C31.5607 10.2433 32.2497 10.4635 32.7541 10.9039C33.2584 11.3444 33.5109 11.9486 33.5115 12.7166V16.3796H32.381V15.556H32.3303C31.8408 16.2356 31.1898 16.5752 30.3771 16.5748C29.6841 16.5748 29.1042 16.3807 28.6374 15.9925C28.4135 15.8143 28.2345 15.5911 28.1134 15.3394C27.9923 15.0876 27.9322 14.8135 27.9374 14.537C27.9374 13.9217 28.1837 13.4326 28.6761 13.0698C29.1686 12.7071 29.8254 12.5253 30.6465 12.5245C31.3477 12.5245 31.9268 12.6465 32.3797 12.8878V12.6321C32.3811 12.4437 32.338 12.2573 32.2537 12.0866C32.1693 11.9158 32.0457 11.7649 31.892 11.6448C31.5794 11.3786 31.172 11.2335 30.7511 11.2385C30.0915 11.2385 29.5692 11.5013 29.1842 12.027L28.1458 11.4066C28.7166 10.6306 29.5633 10.2428 30.6859 10.2433H30.6868ZM29.1574 14.5608C29.1568 14.7026 29.192 14.8425 29.26 14.969C29.328 15.0954 29.4269 15.2048 29.5486 15.2879C29.81 15.482 30.1344 15.5849 30.4669 15.5792C30.9652 15.5779 31.4429 15.3907 31.7957 15.0583C32.1872 14.7101 32.3828 14.3017 32.3826 13.833C32.0139 13.5558 31.5002 13.4171 30.8412 13.4167C30.3612 13.4167 29.9609 13.5259 29.6403 13.7442C29.3173 13.9672 29.1558 14.2368 29.1558 14.5608H29.1574ZM40 10.4382L36.0552 19H34.8355L36.299 16.0038L33.704 10.4382H34.9883L36.8617 14.7084H36.8872L38.7115 10.4382H40Z" fill="#5F6368"/>
<path d="M13.284 8.97621C14.0373 8.96457 14.7652 9.23321 15.3105 9.72411L16.8199 8.30029C15.8632 7.45211 14.5962 6.98627 13.284 7.00031C12.3046 7.0005 11.3446 7.25766 10.5109 7.74309C9.67731 8.22852 9.00291 8.92314 8.56299 9.74943L10.3175 11.0357C10.7358 9.85344 11.9061 8.97621 13.284 8.97621Z" fill="#EA4335"/>
</g>
<defs>
<clipPath id="clip0_204_375">
<rect width="32" height="12" fill="white" transform="translate(8 7)"/>
</clipPath>
</defs>
</svg>
