<svg width="48" height="24" viewBox="0 0 48 24" fill="none" xmlns="http://www.w3.org/2000/svg">
<rect width="48" height="24" rx="2" fill="#FBFAF8"/>
<path fill-rule="evenodd" clip-rule="evenodd" d="M29.8064 21C34.8839 21 39 16.9706 39 12C39 7.02944 34.8839 3 29.8064 3C24.729 3 20.6129 7.02944 20.6129 12C20.6129 16.9706 24.729 21 29.8064 21Z" fill="#F79E1B"/>
<path fill-rule="evenodd" clip-rule="evenodd" d="M18.1935 21C23.271 21 27.3871 16.9706 27.3871 12C27.3871 7.02944 23.271 3 18.1935 3C13.1161 3 9 7.02944 9 12C9 16.9706 13.1161 21 18.1935 21Z" fill="#EB001B"/>
<path fill-rule="evenodd" clip-rule="evenodd" d="M23.9998 5.02195C21.9328 6.67228 20.6129 9.18523 20.6129 12C20.6129 14.8147 21.9328 17.3276 23.9998 18.978C26.0668 17.3276 27.3867 14.8147 27.3867 12C27.3867 9.18523 26.0668 6.67228 23.9998 5.02195Z" fill="#FF5F00"/>
</svg>
