<svg width="48" height="24" viewBox="0 0 48 24" fill="none" xmlns="http://www.w3.org/2000/svg">
<rect width="48" height="24" rx="2" fill="#FBFAF8"/>
<path fill-rule="evenodd" clip-rule="evenodd" d="M25.1737 7.59906L23.1965 8.02443V6.41749L25.1737 6V7.59906ZM17.139 6.91375L15.217 7.32336L15.2091 13.633C15.2091 14.7988 16.0835 15.6574 17.2493 15.6574C17.8952 15.6574 18.3678 15.5392 18.6278 15.3975V13.7984C18.3757 13.9008 17.1311 14.2631 17.1311 13.0973V10.3009H18.6278V8.6231H17.1311L17.139 6.91375ZM12.4836 10.1985C12.0661 10.1985 11.814 10.3167 11.814 10.6239C11.814 10.9593 12.2478 11.1069 12.786 11.2899C13.6634 11.5883 14.8182 11.9811 14.8231 13.436C14.8231 14.8461 13.6967 15.6574 12.0582 15.6574C11.3808 15.6574 10.6403 15.5235 9.90775 15.2084V13.3336C10.5694 13.696 11.4044 13.9638 12.0582 13.9638C12.4993 13.9638 12.8144 13.8457 12.8144 13.4833C12.8144 13.1118 12.3442 12.9419 11.7764 12.7369C10.9118 12.4247 9.82111 12.0308 9.82111 10.7184C9.82111 9.32416 10.8845 8.48918 12.4836 8.48918C13.1374 8.48918 13.7833 8.59159 14.4371 8.85153V10.7027C13.8385 10.3797 13.0823 10.1985 12.4836 10.1985ZM35.3352 8.48918C37.2021 8.48918 38.1789 10.0804 38.1789 12.0969C38.1789 12.2058 38.1737 12.3878 38.1692 12.5422L38.1692 12.5423V12.5423L38.1692 12.5427C38.166 12.6562 38.1631 12.7546 38.1631 12.798H34.3112C34.3978 13.7275 35.0753 13.9953 35.8394 13.9953C36.6192 13.9953 37.2336 13.8299 37.7693 13.5621V15.1375C37.2336 15.4368 36.5247 15.6495 35.5873 15.6495C33.6653 15.6495 32.3262 14.4522 32.3262 12.0812C32.3262 10.0804 33.4605 8.48918 35.3352 8.48918ZM35.3274 10.0882C34.8311 10.0882 34.2876 10.4585 34.2876 11.3486H36.3199C36.3199 10.4585 35.8079 10.0882 35.3274 10.0882ZM21.0776 9.20601L20.9515 8.6231H19.2501V15.5156H21.2194V10.8445C21.6841 10.2379 22.4718 10.3482 22.716 10.4348V8.6231C22.4639 8.52857 21.5423 8.35527 21.0776 9.20601ZM25.1737 8.62309H23.1965V15.5156H25.1737V8.62309ZM29.2856 8.48918C28.5136 8.48918 28.0173 8.85153 27.7416 9.1036L27.6392 8.61522H25.9063V17.8L27.8756 17.3825L27.8834 15.1533C28.167 15.3581 28.5845 15.6495 29.2777 15.6495C30.6877 15.6495 31.9717 14.5152 31.9717 12.0182C31.9638 9.73378 30.6641 8.48918 29.2856 8.48918ZM28.8129 13.9165C28.3482 13.9165 28.0725 13.7511 27.8834 13.5463L27.8756 10.6239C28.0804 10.3955 28.3639 10.2379 28.8129 10.2379C29.5298 10.2379 30.026 11.0414 30.026 12.0733C30.026 13.1288 29.5376 13.9165 28.8129 13.9165Z" fill="#635BFF"/>
</svg>
