<svg width="48" height="24" viewBox="0 0 48 24" fill="none" xmlns="http://www.w3.org/2000/svg">
<rect width="48" height="24" rx="2" fill="#FBFAF8"/>
<path fill-rule="evenodd" clip-rule="evenodd" d="M32.1666 7.44798C31.5893 7.23205 30.6847 7 29.5546 7C26.6748 7 24.6456 8.44574 24.6285 10.5164C24.6128 12.0486 26.0767 12.9017 27.1826 13.4125C28.3167 13.9339 28.6985 14.2673 28.6925 14.7335C28.6853 15.4479 27.7871 15.7741 26.9494 15.7741C25.7826 15.7741 25.1632 15.6133 24.2058 15.2154L23.8299 15.0457L23.4209 17.4315C24.1024 17.7285 25.3603 17.9868 26.6676 18C29.7316 18 31.7209 16.5712 31.743 14.3594C31.7536 13.1469 30.9776 12.2243 29.2966 11.4645C28.2771 10.9711 27.6534 10.6415 27.6603 10.1426C27.6603 9.70058 28.1877 9.22588 29.3285 9.22588C30.2829 9.21103 30.9725 9.41847 31.5102 9.63482L31.7719 9.757L32.1666 7.44798ZM18.6827 17.8418L20.505 7.18583H23.4193L21.596 17.8418H18.6827ZM37.389 7.19625H39.6413L42 17.8446H39.2952C39.2952 17.8446 39.0283 16.6211 38.9411 16.2482C38.7156 16.2482 37.7742 16.247 36.8894 16.2459L36.877 16.2459C36.0973 16.2449 35.3644 16.244 35.2082 16.244C35.095 16.532 34.5948 17.8446 34.5948 17.8446H31.5337L35.8621 8.0799C36.1694 7.38546 36.6909 7.19625 37.389 7.19625ZM36.0464 14.0644C36.2878 13.4505 37.2081 11.0851 37.2081 11.0851C37.1996 11.099 37.2563 10.9523 37.3337 10.752L37.3337 10.7519C37.4149 10.5418 37.5188 10.2728 37.5942 10.0682L37.7909 10.9871C37.7909 10.9871 38.3494 13.5303 38.4664 14.0644H36.0464ZM13.3849 14.46L16.2378 7.19358H19.3249L14.7369 17.8288L11.6528 17.833L9.04419 8.51291C10.8942 9.43601 12.5497 11.2805 13.0805 12.9833L13.3849 14.46Z" fill="#1A1F71"/>
<path fill-rule="evenodd" clip-rule="evenodd" d="M10.7374 7.18659H6.03703L6 7.40803C9.65663 8.29083 12.0762 10.4221 13.0804 12.9835L12.0583 8.08594C11.8821 7.411 11.37 7.20992 10.7374 7.18659" fill="#F9A51A"/>
</svg>
