<svg width="48" height="24" viewBox="0 0 48 24" fill="none" xmlns="http://www.w3.org/2000/svg">
<rect width="48" height="24" rx="2" fill="#FBFAF8"/>
<path fill-rule="evenodd" clip-rule="evenodd" d="M15.3285 6.40399C15.3955 7.00206 15.1503 7.60236 14.7855 8.03397C14.4207 8.46558 13.8225 8.8011 13.2372 8.75642C13.1572 8.17064 13.4527 7.55991 13.7905 7.17746C14.1675 6.74622 14.8034 6.42522 15.3285 6.40399ZM17.2212 9.88781C17.1255 9.94507 16.0864 10.5663 16.0987 11.8278C16.1124 13.3369 17.4233 13.8623 17.4969 13.8918C17.4986 13.8925 17.4996 13.8929 17.5 13.8931C17.4993 13.8951 17.4979 13.8993 17.496 13.9055C17.463 14.0083 17.2521 14.6664 16.7769 15.345C16.3416 15.9666 15.8911 16.5862 15.1794 16.5989C14.8378 16.6051 14.6094 16.5085 14.372 16.4081C14.1234 16.303 13.8649 16.1937 13.4563 16.1937C13.0284 16.1937 12.758 16.3063 12.4976 16.4148C12.2717 16.5089 12.0533 16.5998 11.7461 16.6116C11.0596 16.6365 10.5371 15.9394 10.0984 15.3197C9.20165 14.0528 8.5166 11.7388 9.43661 10.1762C9.89356 9.40049 10.71 8.9093 11.5965 8.89701C11.9786 8.89004 12.3486 9.03349 12.6726 9.15907C12.9201 9.25502 13.1408 9.34053 13.3192 9.34053C13.4793 9.34053 13.6939 9.25773 13.9443 9.16116C14.3382 9.00918 14.8205 8.8231 15.3176 8.87206C15.6577 8.88695 16.6131 9.00724 17.2266 9.8846C17.2254 9.88533 17.2236 9.8864 17.2212 9.88781Z" fill="#2A2D2E"/>
<path d="M21.4177 16H22.4888V12.9353H24.655C26.2677 12.9353 27.4102 11.7986 27.4102 10.1681V10.1562C27.4102 8.52563 26.2677 7.41281 24.655 7.41281H21.4177V16ZM24.3812 8.36496C25.6071 8.36496 26.3153 9.03741 26.3153 10.1681V10.18C26.3153 11.3107 25.6071 11.9831 24.3812 11.9831H22.4888V8.36496H24.3812ZM29.9286 16.1131C30.7915 16.1131 31.4639 15.7382 31.8686 15.0538H31.9638V16H32.9993V11.6082C32.9993 10.2752 32.1245 9.47183 30.5594 9.47183C29.1907 9.47183 28.2147 10.1502 28.0481 11.1559L28.0421 11.1917H29.0776L29.0836 11.1738C29.2502 10.6739 29.756 10.3883 30.5237 10.3883C31.4818 10.3883 31.9638 10.8167 31.9638 11.6082V12.1914L30.125 12.3045C28.6313 12.3937 27.7863 13.0543 27.7863 14.1969V14.2088C27.7863 15.3752 28.7086 16.1131 29.9286 16.1131ZM28.8455 14.185V14.1731C28.8455 13.5363 29.274 13.1912 30.2499 13.1317L31.9638 13.0245V13.6077C31.9638 14.5242 31.1961 15.2145 30.1428 15.2145C29.399 15.2145 28.8455 14.8336 28.8455 14.185ZM34.5714 18.2495C35.7081 18.2495 36.2377 17.8329 36.7673 16.3928L39.2727 9.5849H38.1836L36.4281 14.8634H36.3329L34.5714 9.5849H33.4646L35.839 16.006L35.72 16.3868C35.4879 17.1247 35.1308 17.3925 34.5417 17.3925C34.3988 17.3925 34.2382 17.3866 34.1132 17.3628V18.2137C34.256 18.2375 34.4346 18.2495 34.5714 18.2495Z" fill="#2A2D2E"/>
</svg>
