<svg width="17" height="17" viewBox="0 0 17 17" fill="none" xmlns="http://www.w3.org/2000/svg">
<path d="M10.5511 1.43673C10.5199 1.31197 10.4478 1.20124 10.3464 1.12211C10.245 1.04298 10.1201 1 9.9915 1H7.42996C7.30135 1 7.17642 1.04298 7.07503 1.12211C6.97364 1.20124 6.9016 1.31197 6.87034 1.43673L6.48957 2.96212C6.47078 3.03714 6.43709 3.10762 6.39051 3.16937C6.34392 3.23112 6.2854 3.28286 6.21842 3.32154L5.47361 3.7525C5.4065 3.79123 5.33226 3.81605 5.25535 3.82547C5.17843 3.83488 5.1004 3.82871 5.02592 3.80731L3.51438 3.37462C3.39057 3.33912 3.25844 3.34608 3.13904 3.39439C3.01964 3.44269 2.91984 3.52956 2.85554 3.64115L1.57534 5.85885C1.511 5.97028 1.48577 6.10003 1.50364 6.22746C1.52152 6.35489 1.58148 6.47268 1.674 6.56212L2.80477 7.65538C2.86043 7.70918 2.90469 7.77364 2.93492 7.8449C2.96515 7.91616 2.98073 7.99278 2.98073 8.07019V8.92981C2.98081 9.00732 2.96526 9.08404 2.93503 9.15541C2.9048 9.22678 2.8605 9.29132 2.80477 9.34519L1.674 10.4379C1.58144 10.5274 1.5215 10.6454 1.50372 10.7729C1.48595 10.9005 1.51137 11.0303 1.57592 11.1417L2.85554 13.3588C2.9199 13.4702 3.01965 13.5569 3.13892 13.6051C3.25818 13.6533 3.39014 13.6602 3.51381 13.6248L5.01957 13.1944C5.09593 13.1726 5.17598 13.1667 5.25471 13.1773C5.33343 13.1878 5.40913 13.2144 5.47708 13.2556L6.03265 13.5925C6.1497 13.6636 6.23764 13.774 6.28073 13.904L6.84842 15.606C6.8868 15.7208 6.96032 15.8206 7.05858 15.8913C7.15684 15.9621 7.27486 16.0001 7.39592 16H10.0255C10.1467 16 10.2647 15.9619 10.363 15.8911C10.4613 15.8203 10.5348 15.7203 10.573 15.6054L11.1396 13.9052C11.1832 13.7743 11.2722 13.6634 11.3905 13.5925L11.9571 13.2538C12.0249 13.2132 12.1004 13.187 12.1788 13.1768C12.2572 13.1666 12.3369 13.1726 12.4128 13.1944L13.9071 13.6242C14.0308 13.6598 14.1629 13.6529 14.2823 13.6047C14.4017 13.5565 14.5015 13.4698 14.5659 13.3583L15.8478 11.1383C15.9118 11.0274 15.9371 10.8985 15.9198 10.7717C15.9025 10.6449 15.8435 10.5275 15.7521 10.4379L14.6369 9.34404C14.5822 9.2904 14.5387 9.2264 14.509 9.15578C14.4792 9.08515 14.4639 9.00931 14.4638 8.93269V8.06731C14.4639 7.99068 14.4792 7.91485 14.509 7.84422C14.5387 7.7736 14.5822 7.7096 14.6369 7.65596L15.7521 6.56212C15.8435 6.47253 15.9025 6.3551 15.9198 6.22831C15.9371 6.10152 15.9118 5.97256 15.8478 5.86173L14.5659 3.64173C14.5014 3.53034 14.4016 3.44372 14.2822 3.39563C14.1628 3.34754 14.0308 3.34075 13.9071 3.37635L12.4071 3.80731C12.3328 3.82872 12.2551 3.835 12.1784 3.82579C12.1017 3.81657 12.0276 3.79204 11.9605 3.75365L11.2048 3.32096C11.1372 3.28239 11.0782 3.23057 11.0312 3.16861C10.9842 3.10664 10.9502 3.03582 10.9313 2.96038L10.5505 1.43731L10.5511 1.43673Z" stroke="#D7D7D7" stroke-linejoin="round"/>
<path d="M11.5953 8.49997C11.5953 9.26502 11.2914 9.99873 10.7505 10.5397C10.2095 11.0807 9.47577 11.3846 8.71073 11.3846C7.94568 11.3846 7.21197 11.0807 6.671 10.5397C6.13002 9.99873 5.82611 9.26502 5.82611 8.49997C5.82611 7.73492 6.13002 7.00121 6.671 6.46024C7.21197 5.91927 7.94568 5.61536 8.71073 5.61536C9.47577 5.61536 10.2095 5.91927 10.7505 6.46024C11.2914 7.00121 11.5953 7.73492 11.5953 8.49997Z" stroke="#D7D7D7" stroke-linejoin="round"/>
</svg>
