<svg width="47" height="19" viewBox="0 0 47 19" fill="none" xmlns="http://www.w3.org/2000/svg">
<g clip-path="url(#clip0_187_339)">
<path d="M47 9.77346C47 6.54088 45.3811 3.99018 42.287 3.99018C39.1796 3.99018 37.2996 6.54097 37.2996 9.74824C37.2996 13.549 39.5192 15.4683 42.7046 15.4683C44.2583 15.4683 45.4333 15.1274 46.3211 14.6476V12.1221C45.4334 12.5515 44.415 12.8167 43.1225 12.8167C41.8561 12.8167 40.7333 12.3873 40.5897 10.8973H46.9739C46.9739 10.733 47 10.0765 47 9.77346ZM40.5505 8.57388C40.5505 7.14702 41.4514 6.55349 42.2739 6.55349C43.0703 6.55349 43.9189 7.14702 43.9189 8.57388H40.5505ZM32.2604 3.99018C30.9808 3.99018 30.1583 4.57101 29.7014 4.97516L29.5316 4.19225H26.6595V18.9155L29.9233 18.2463L29.9364 14.6728C30.4064 15.0011 31.0983 15.4683 32.2472 15.4683C34.5842 15.4683 36.7122 13.65 36.7122 9.64721C36.6992 5.98527 34.545 3.99018 32.2603 3.99018H32.2604ZM31.477 12.6903C30.7067 12.6903 30.2496 12.4252 29.9364 12.0969L29.9233 7.41213C30.2628 7.04598 30.7328 6.79348 31.477 6.79348C32.665 6.79348 33.4875 8.08139 33.4875 9.73555C33.4875 11.4276 32.678 12.6903 31.477 12.6903ZM22.1683 3.24518L25.4453 2.56331V0L22.1683 0.669262V3.24518ZM22.1683 4.20486H25.4453V15.2536H22.1683V4.20486ZM18.6564 5.13923L18.4475 4.20486H15.6275V15.2536H18.8914V7.76576C19.6616 6.79348 20.9672 6.97025 21.372 7.10911V4.20486C20.9542 4.0533 19.4267 3.7755 18.6564 5.13923ZM12.1286 1.46478L8.94303 2.12134L8.93 12.2357C8.93 14.1047 10.3792 15.4809 12.3114 15.4809C13.382 15.4809 14.1653 15.2915 14.5961 15.0642V12.5009C14.1784 12.6651 12.1155 13.2459 12.1155 11.3771V6.89443H14.5961V4.20486H12.1155L12.1286 1.46478ZM3.30304 7.41213C3.30304 6.91973 3.7208 6.73026 4.41286 6.73026C5.405 6.73026 6.6583 7.02077 7.65054 7.53847V4.57101C6.56697 4.15434 5.49643 3.99018 4.41286 3.99018C1.7625 3.99018 0 5.3287 0 7.56378C0 11.0488 4.96107 10.4932 4.96107 11.9959C4.96107 12.5767 4.43893 12.7661 3.70777 12.7661C2.6242 12.7661 1.24027 12.3368 0.14357 11.7559V14.7612C1.35777 15.2663 2.585 15.4809 3.70777 15.4809C6.4233 15.4809 8.29027 14.1804 8.29027 11.9201C8.27723 8.15722 3.30304 8.82639 3.30304 7.41213Z" fill="#635BFF"/>
</g>
<defs>
<clipPath id="clip0_187_339">
<rect width="47" height="19" fill="white"/>
</clipPath>
</defs>
</svg>
