<svg width="20" height="20" viewBox="0 0 20 20" fill="none" xmlns="http://www.w3.org/2000/svg">
<path d="M10 4.28577C9.29366 4.28577 8.60316 4.49523 8.01584 4.88766C7.42852 5.28009 6.97076 5.83788 6.70045 6.49047C6.43014 7.14306 6.35941 7.86116 6.49721 8.55395C6.63502 9.24673 6.97516 9.8831 7.47464 10.3826C7.97411 10.882 8.61048 11.2222 9.30327 11.36C9.99606 11.4978 10.7142 11.4271 11.3667 11.1568C12.0193 10.8865 12.5771 10.4287 12.9696 9.84137C13.362 9.25406 13.5714 8.56356 13.5714 7.85719C13.5714 6.90999 13.1952 6.00159 12.5254 5.33181C11.8556 4.66204 10.9472 4.28577 10 4.28577Z" fill="#FF7D7D"/>
<path d="M10 0C8.02219 0 6.08879 0.58649 4.4443 1.6853C2.79981 2.78412 1.51809 4.3459 0.761209 6.17316C0.00433283 8.00043 -0.1937 10.0111 0.192152 11.9509C0.578004 13.8907 1.53041 15.6725 2.92894 17.0711C4.32746 18.4696 6.10929 19.422 8.0491 19.8078C9.98891 20.1937 11.9996 19.9957 13.8268 19.2388C15.6541 18.4819 17.2159 17.2002 18.3147 15.5557C19.4135 13.9112 20 11.9778 20 10C19.997 7.34876 18.9424 4.80698 17.0677 2.93227C15.193 1.05756 12.6512 0.0030248 10 0ZM15.7086 16.3757C15.6943 15.4388 15.3126 14.545 14.6457 13.8868C13.9787 13.2287 13.0799 12.8589 12.1429 12.8571H7.85715C6.92013 12.8589 6.02132 13.2287 5.35435 13.8868C4.68739 14.545 4.30567 15.4388 4.29143 16.3757C2.99612 15.2191 2.08267 13.6963 1.67203 12.009C1.26139 10.3218 1.37293 8.54953 1.99189 6.92704C2.61084 5.30455 3.70802 3.90833 5.13813 2.92326C6.56823 1.93819 8.26382 1.41073 10.0004 1.41073C11.7369 1.41073 13.4325 1.93819 14.8626 2.92326C16.2927 3.90833 17.3899 5.30455 18.0088 6.92704C18.6278 8.54953 18.7393 10.3218 18.3287 12.009C17.9181 13.6963 17.0039 15.2191 15.7086 16.3757Z" fill="#FF7D7D"/>
</svg>
